<svg id="Layer_1" xmlns="http://www.w3.org/2000/svg" viewBox="0 0 716.9 154.6"><style>.st0{fill:#1A171B;} .st1{fill:#FCFF7F;} .st2{fill:#FFE07F;} .st3{fill:#FFE23B;} .st4{fill:#FFAE7F;} .st5{fill:#FF993F;} .st6{fill:#FC991F;} .st7{fill:#FF7FA4;} .st8{fill:#FF5752;} .st9{fill:#FF4C29;} .st10{fill:#FC4C14;} .st11{fill:#DD7FFF;} .st12{fill:#DD3FA4;} .st13{fill:#DD2B52;} .st14{fill:#7FB6FF;} .st15{fill:#6E5BFF;} .st16{fill:#6E2DA4;} .st17{fill:#6E1F52;} .st18{fill:#DD2629;}</style><path class="st0" d="M490.5 40.1v12.4l12.8-13.8v20.2h-3.2V46.3l-12.8 13.8v-20h3.2zM509.4 40.1h3.2v7.7h8.8v-7.7h3.2v18.7h-3.2v-8.1h-8.8v8.1h-3.2V40.1zM537.3 43v15.8h-3.2V43h-5.9v-3h15v3h-5.9zM562.8 54c-.5 1-1.4 2.2-2.3 3-1.7 1.5-3.8 2.3-6.2 2.3-4.5 0-9.3-2.8-9.3-9.8 0-5.6 3.4-9.9 9.1-9.9 3.7 0 6 1.8 7.1 3.4 1.2 1.7 1.9 4.6 1.8 7h-14.6c0 3.9 2.7 6.4 6 6.4 1.5 0 2.8-.4 3.8-1.4.9-.7 1.5-1.7 1.9-2.6l2.7 1.6zm-3.2-6.6c-.5-2.9-2.8-4.9-5.5-4.9-2.8 0-5 2.1-5.5 4.9h11zM571.1 69.2h-3.2V40.1h3.2v2.6c2.2-2.8 5.1-3.1 6.4-3.1 5.9 0 9.1 4.9 9.1 9.9 0 5.1-3.3 9.8-9 9.8-3 0-5.1-1.4-6.5-3.2v13.1zm12.2-19.7c0-4.6-3.1-7-6.1-7-3 0-6.2 2.5-6.2 7 0 3.8 2.4 6.9 6.3 6.9 3.7 0 6-3.1 6-6.9zM591.6 40.1h3.2v7.2h3.3c1.7 0 4 .1 5.7 1.8.7.7 1.4 2 1.4 3.9 0 2-.9 3.4-1.7 4.2-1.6 1.5-3.7 1.6-5.5 1.6h-6.5V40.1zm6.3 15.8c1.1 0 2.1 0 2.9-.5.4-.3 1.2-.9 1.2-2.4 0-.8-.2-1.8-1.2-2.3-.8-.5-1.8-.5-2.9-.5h-3.1V56h3.1zM626.2 54c-.5 1-1.4 2.2-2.3 3-1.7 1.5-3.8 2.3-6.2 2.3-4.5 0-9.3-2.8-9.3-9.8 0-5.6 3.4-9.9 9.1-9.9 3.7 0 6 1.8 7.1 3.4 1.2 1.7 1.9 4.6 1.8 7h-14.6c0 3.9 2.7 6.4 6 6.4 1.5 0 2.8-.4 3.8-1.4.9-.7 1.5-1.7 1.9-2.6l2.7 1.6zm-3.2-6.6c-.5-2.9-2.8-4.9-5.5-4.9-2.8 0-5 2.1-5.5 4.9h11zM634.6 69.2h-3.2V40.1h3.2v2.6c2.2-2.8 5.1-3.1 6.4-3.1 5.9 0 9.1 4.9 9.1 9.9 0 5.1-3.3 9.8-9 9.8-3 0-5.1-1.4-6.5-3.2v13.1zm12.2-19.7c0-4.6-3.1-7-6.1-7-3 0-6.2 2.5-6.2 7 0 3.8 2.4 6.9 6.3 6.9 3.7 0 6-3.1 6-6.9zM655.1 40.1h3.2v7.7h8.8v-7.7h3.2v18.7h-3.2v-8.1h-8.8v8.1h-3.2V40.1zM675.4 49.5c0-5.7 4.2-9.9 9.9-9.9s9.9 4.2 9.9 9.9-4.2 9.8-9.9 9.8-9.9-4.1-9.9-9.8zm3.3 0c0 4.6 3.2 6.9 6.6 6.9 3.4 0 6.6-2.4 6.6-6.9 0-4.6-3.2-7-6.6-7-3.4 0-6.6 2.4-6.6 7zM716.8 54c-.5 1-1.4 2.2-2.3 3-1.7 1.5-3.8 2.3-6.2 2.3-4.5 0-9.3-2.8-9.3-9.8 0-5.6 3.4-9.9 9.1-9.9 3.7 0 6 1.8 7.1 3.4 1.2 1.7 1.8 4.6 1.8 7h-14.6c0 3.9 2.7 6.4 6 6.4 1.5 0 2.8-.4 3.8-1.4.9-.7 1.5-1.7 1.9-2.6l2.7 1.6zm-3.2-6.6c-.5-2.9-2.8-4.9-5.5-4.9-2.8 0-5 2.1-5.5 4.9h11z"/><g><path class="st0" d="M506.5 74c-1.1 3.6-4.2 4.6-6.1 5.1-1.8.5-4.2.9-6 2.2-2.3 1.8-3.8 5.1-3.9 8.6h.1c1.2-2.1 3.5-3.4 6.8-3.4 5.6 0 9.7 4.3 9.7 9.9s-4.1 9.8-10.2 9.8c-3.2 0-5.2-1.2-6.5-2.3-2.8-2.6-3.2-6.4-3.2-9.7 0-3.3.1-11.9 5.3-15.4 2-1.4 4.4-1.8 6.5-2.3 2.5-.6 3.3-1.4 3.7-2.4h3.8zm-15.9 22.3c0 4.6 3.2 6.9 6.6 6.9 3.4 0 6.6-2.4 6.6-6.9 0-4.6-3.2-7-6.6-7-3.5 0-6.6 2.4-6.6 7zM518.7 94.6c.3-2.3 1.4-4.1 2.5-5.3 1.6-1.7 4.1-2.8 7.1-2.8 5.8 0 9.9 4.2 9.9 9.9s-4.2 9.8-9.9 9.8c-3.9 0-6.3-1.8-7.7-3.5-.9-1.1-1.8-2.8-2.1-5.1h-3.2v8.1h-3.2V86.9h3.2v7.7h3.4zm3.2 1.7c0 4.6 3.2 6.9 6.5 6.9 3.4 0 6.6-2.4 6.6-6.9 0-4.6-3.2-7-6.6-7-3.6 0-6.5 2.5-6.5 7zM546.4 116h-3.2V86.9h3.2v2.6c2.2-2.8 5.1-3.1 6.4-3.1 5.9 0 9.1 4.9 9.1 9.9 0 5.1-3.3 9.8-9 9.8-3 0-5.1-1.4-6.5-3.2V116zm12.2-19.6c0-4.6-3.1-7-6.1-7-3 0-6.2 2.5-6.2 7 0 3.8 2.4 6.9 6.3 6.9 3.7 0 6-3.2 6-6.9zM565.7 96.3c0-5.7 4.2-9.9 9.9-9.9s9.9 4.2 9.9 9.9-4.2 9.8-9.9 9.8c-5.6 0-9.9-4.1-9.9-9.8zm3.4 0c0 4.6 3.2 6.9 6.6 6.9 3.4 0 6.6-2.4 6.6-6.9 0-4.6-3.2-7-6.6-7s-6.6 2.4-6.6 7z"/></g><g><path d="M161.6 17.4h26.9V22h-22.2v14.7h22v4.6h-22v18.5h22v4.6h-26.7v-47zM119.5 17.4h27.1V22h-22.4v14.7h22.4v4.6h-22.4v23.1h-4.7v-47zM200.7 55.6l4-2.4c2.8 5.2 6.1 7.8 9.7 7.8 1.6 0 3.1-.4 4.4-1.1 1.4-.7 2.4-1.7 3.2-3 .7-1.2 1.1-2.5 1.1-3.9 0-1.6-.5-3.1-1.6-4.6-1.5-2.1-4.2-4.6-8-7.5-3.9-3-6.4-5.1-7.3-6.4-1.7-2.2-2.5-4.6-2.5-7.2 0-2 .5-3.9 1.5-5.6 1-1.7 2.4-3 4.1-4 1.8-1 3.7-1.5 5.8-1.5 2.2 0 4.3.5 6.2 1.6 1.9 1.1 4 3.1 6.1 6.1l-3.8 2.9c-1.8-2.3-3.3-3.9-4.5-4.6-1.2-.7-2.6-1.1-4.1-1.1-1.9 0-3.4.6-4.6 1.7-1.2 1.1-1.8 2.6-1.8 4.2 0 1 .2 2 .6 3 .4 1 1.2 2 2.3 3.1.6.6 2.6 2.2 6.1 4.7 4.1 3 6.9 5.7 8.4 8s2.3 4.7 2.3 7.1c0 3.4-1.3 6.4-3.9 8.9-2.6 2.5-5.7 3.8-9.4 3.8-2.9 0-5.4-.8-7.8-2.3-2.4-1.6-4.5-4.1-6.5-7.7zM236.2 22v-4.6h29.3V22h-12.3v42.4h-4.8V22h-12.2zM279.6 17.4h4.7v47h-4.7v-47zM297.8 17.4h5.1l15.6 36.3 15.8-36.3h5.1l-20.4 47h-1l-20.2-47zM360.2 17.4H359l-22.2 47h5.3l7.3-15.5 2.1-4.5 8.1-17 8 17 2 4.5 7.4 15.5h5.1zM392 17.4h4.7v42.4h19.9v4.5H392V17.4z"/><g><path d="M165.5 99l-3.7 2.8c-2-2.7-4.5-4.7-7.4-6.1-2.9-1.4-6-2.1-9.4-2.1-3.7 0-7.2.9-10.4 2.7-3.2 1.8-5.7 4.2-7.4 7.2-1.8 3-2.6 6.4-2.6 10.2 0 5.7 2 10.5 5.9 14.3 3.9 3.8 8.9 5.7 14.9 5.7 6.6 0 12.1-2.6 16.5-7.7l3.7 2.8c-2.3 3-5.3 5.3-8.8 6.9-3.5 1.6-7.4 2.4-11.7 2.4-8.2 0-14.7-2.7-19.4-8.2-4-4.6-6-10.2-6-16.7 0-6.9 2.4-12.7 7.2-17.4 4.8-4.7 10.9-7 18.1-7 4.4 0 8.3.9 11.9 2.6 3.4 2 6.3 4.4 8.6 7.6zM197.2 89.1c7.1 0 13.1 2.4 17.9 7.1 4.8 4.7 7.2 10.6 7.2 17.5s-2.4 12.7-7.2 17.5c-4.8 4.8-10.6 7.2-17.5 7.2-7 0-12.8-2.4-17.6-7.2-4.8-4.8-7.2-10.5-7.2-17.3 0-4.5 1.1-8.7 3.3-12.5 2.2-3.9 5.2-6.9 8.9-9.1 3.8-2.2 7.9-3.2 12.2-3.2zm.3 4.5c-3.5 0-6.8.9-9.9 2.7-3.1 1.8-5.5 4.3-7.3 7.3-1.7 3.1-2.6 6.5-2.6 10.3 0 5.6 1.9 10.3 5.8 14.1 3.9 3.8 8.5 5.8 14 5.8 3.6 0 7-.9 10.1-2.7 3.1-1.8 5.5-4.2 7.3-7.3 1.7-3.1 2.6-6.5 2.6-10.2 0-3.7-.9-7.1-2.6-10.1-1.7-3-4.2-5.4-7.3-7.2-3.3-1.8-6.6-2.7-10.1-2.7zM232.6 90.2h4.7v42.4h19.9v4.5h-24.6V90.2zM284.3 89.1c7.1 0 13.1 2.4 17.9 7.1 4.8 4.7 7.2 10.6 7.2 17.5s-2.4 12.7-7.2 17.5c-4.8 4.8-10.6 7.2-17.5 7.2-7 0-12.8-2.4-17.6-7.2-4.8-4.8-7.2-10.5-7.2-17.3 0-4.5 1.1-8.7 3.3-12.5 2.2-3.9 5.2-6.9 8.9-9.1 3.7-2.2 7.8-3.2 12.2-3.2zm.2 4.5c-3.5 0-6.8.9-9.9 2.7-3.1 1.8-5.5 4.3-7.3 7.3-1.7 3.1-2.6 6.5-2.6 10.3 0 5.6 1.9 10.3 5.8 14.1 3.9 3.8 8.5 5.8 14 5.8 3.6 0 7-.9 10.1-2.7 3.1-1.8 5.5-4.2 7.3-7.3 1.7-3.1 2.6-6.5 2.6-10.2 0-3.7-.9-7.1-2.6-10.1-1.7-3-4.2-5.4-7.3-7.2-3.2-1.8-6.6-2.7-10.1-2.7zM319.9 90.2h9.4c5.2 0 8.7.2 10.6.6 2.8.6 5.1 2 6.8 4.1 1.7 2.1 2.6 4.7 2.6 7.8 0 2.6-.6 4.8-1.8 6.7-1.2 1.9-2.9 3.4-5.2 4.4-2.2 1-5.3 1.5-9.3 1.5l16.9 21.8h-5.8l-16.9-21.8h-2.7v21.8h-4.7V90.2zm4.7 4.6v16l8.1.1c3.1 0 5.5-.3 7-.9 1.5-.6 2.7-1.5 3.5-2.9.8-1.3 1.3-2.8 1.3-4.4 0-1.6-.4-3-1.3-4.3-.9-1.3-2-2.2-3.4-2.8-1.4-.6-3.7-.8-6.9-.8h-8.3z"/></g></g><g><path class="st1" d="M69.7 42.4c9.9 13.6 12.2 27.9 3.9 34.9C84.4 76.5 91 63.6 91 46.8 91 28.1 79.4 0 73.6 0c-4.7 0-11.8 15.1-15.3 30.4 4.4 3.8 8.5 7.9 11.4 12z"/><path class="st2" d="M56.7 54c-.3-2.3-.4-4.7-.4-7.2 0-5 .8-10.7 2.1-16.3-12-10.3-26.7-18.1-30.1-15.7-3.8 2.8-.7 19.1 5.5 33.6 5.8.5 11.5 1.4 16.3 3 2.2.7 4.5 1.6 6.6 2.6z"/><path class="st3" d="M56.7 54c12.1 5.6 19.2 14.4 17 23.3 8.3-7 6-21.3-3.9-34.9-3-4.1-7-8.2-11.4-12-1.3 5.6-2.1 11.3-2.1 16.3-.1 2.6.1 5 .4 7.3z"/><path class="st4" d="M46.2 68.4c-1.6-1.7-3.1-3.5-4.6-5.6-2.9-4.1-5.6-9.1-7.9-14.4-15.7-1.3-32.3 1-33.6 5-1.4 4.5 10.7 15.9 24.2 23.9 5-3 10.1-5.6 14.9-7.2 2.4-.7 4.7-1.3 7-1.7z"/><path class="st5" d="M46.2 68.4c5.4-1.1 10.4-1.2 14.6-.4-2.1-3.8-3.5-8.6-4.2-14-2.1-1-4.3-1.8-6.7-2.6-4.8-1.5-10.5-2.5-16.3-3 2.3 5.3 5 10.4 7.9 14.4 1.6 2 3.1 3.9 4.7 5.6z"/><path class="st6" d="M73.6 77.3c2.2-9-4.9-17.7-17-23.3.7 5.4 2.1 10.2 4.2 14 6.2 1.2 10.8 4.2 12.8 9.3z"/><path class="st7" d="M46.2 86.2c-2.3-.4-4.6-1.1-7-1.8-4.8-1.6-9.9-4.1-14.9-7C10.9 85.6-1.1 97.2.1 101.2c1.5 4.4 18 6.6 33.7 5.1 2.2-5.4 4.9-10.5 7.8-14.5 1.5-2 3-3.9 4.6-5.6z"/><path class="st8" d="M46.2 86.2c3.7-4 7.7-7.1 11.6-8.9-3.9-1.9-7.9-4.9-11.6-8.9-2.3.4-4.6 1-6.9 1.8-4.8 1.6-9.9 4.1-14.9 7.2 5 3 10.1 5.5 14.9 7 2.3.8 4.6 1.4 6.9 1.8z"/><path class="st9" d="M67.3 75.3c-2.6-1.6-4.8-4.1-6.5-7.3-4.3-.8-9.3-.7-14.6.4 3.7 4 7.7 7.1 11.6 8.9 3.3-1.5 6.5-2.3 9.5-2z"/><path class="st10" d="M67.3 75.3c2.2.2 4.3.8 6.3 2-2-5.1-6.7-8.1-12.8-9.3 1.8 3.2 3.9 5.7 6.5 7.3z"/><path class="st11" d="M56.7 100.7c-2.1 1-4.3 1.8-6.7 2.6-4.8 1.5-10.4 2.5-16.2 3.1-6.1 14.6-9 31-5.6 33.5 3.8 2.7 18.4-5.3 30.3-15.6-1.3-5.7-2.2-11.4-2.2-16.4 0-2.6.1-5 .4-7.2z"/><path class="st12" d="M56.7 100.7c.7-5.4 2.1-10.2 4.2-14-4.3.8-9.3.7-14.6-.4-1.6 1.7-3.1 3.5-4.5 5.5-2.9 4.1-5.6 9.2-7.8 14.5 5.8-.5 11.4-1.5 16.2-3.1 2.2-.7 4.4-1.6 6.5-2.5z"/><path class="st13" d="M67.3 79.3c-3 .2-6.3-.5-9.5-2-3.9 1.9-7.9 4.9-11.6 8.9 5.4 1.1 10.4 1.2 14.6.4 1.8-3.2 4-5.6 6.5-7.3z"/><path class="st14" d="M91 107.8c0-16.9-6.6-29.8-17.4-30.5 8.3 7 6.1 21.3-3.9 34.9-3 4-6.9 8.2-11.3 12 3.7 15.4 11 30.4 15.2 30.4 6.4 0 17.4-28.1 17.4-46.8z"/><path class="st15" d="M69.8 112.2c9.9-13.6 12.2-27.9 3.9-34.9 2.2 9-4.9 17.7-17 23.3-.3 2.3-.4 4.7-.4 7.2 0 5 .9 10.7 2.2 16.4 4.3-3.8 8.3-7.9 11.3-12z"/><path class="st16" d="M73.6 77.3c-2 5-6.7 8.1-12.8 9.3-2.1 3.8-3.5 8.6-4.2 14 12.2-5.5 19.3-14.3 17-23.3z"/><path class="st17" d="M73.6 77.3c-2 1.2-4.1 1.9-6.3 2-2.6 1.6-4.8 4.1-6.5 7.3 6.2-1.1 10.8-4.2 12.8-9.3z"/><path class="st18" d="M73.6 77.3c-2-1.2-4.1-1.9-6.3-2-3-.2-6.3.5-9.5 2 3.3 1.5 6.5 2.3 9.5 2 2.3-.1 4.4-.8 6.3-2z"/></g><path d="M449.9 11.5h3.9v131.6h-3.9z"/></svg>